<?xml version="1.0" encoding="UTF-8"?>
<svg width="100%" height="100%" viewBox="0 0 138 65" version="1.1" xmlns="http://www.w3.org/2000/svg" xmlns:xlink="http://www.w3.org/1999/xlink">
    <title>Group 2</title>
    <g id="Page-1" stroke="none" stroke-width="1" fill="none" fill-rule="evenodd">
        <g id="Artboard" transform="translate(-137.000000, -108.000000)">
            <g id="Group-2" transform="translate(137.909900, 108.541200)">
                <path d="M20.353,27.4492 C20.353,23.7772 18.424,22.4702 15.436,22.4702 C12.573,22.4702 10.706,24.0262 9.585,25.3952 L9.585,44.8152 L-1.42108547e-14,44.8152 L-1.42108547e-14,14.7522 L9.585,14.7522 L9.585,17.3942 L8.406,19.5932 C10.211,17.4762 14.938,14.0052 19.979,14.0052 C26.826,14.0052 29.938,17.9892 29.938,23.5282 L29.938,44.8152 L20.353,44.8152 L20.353,27.4492 Z" id="Fill-99" fill="#081F2C"></path>
                <path d="M53.1811,40.3735 C51.3141,42.4895 46.8681,45.5615 41.8271,45.5615 C34.9801,45.5615 31.9301,41.7025 31.9301,36.1635 L31.9301,14.7515 L41.5151,14.7515 L41.5151,32.2415 C41.5151,35.8525 43.3831,37.0965 46.4941,37.0965 C49.2331,37.0965 51.1001,35.6025 52.2211,34.1715 L52.2211,14.7515 L61.8061,14.7515 L61.8061,44.8145 L52.2211,44.8145 L52.2211,42.5705 L53.1811,40.3735 Z" id="Fill-100" fill="#081F2C"></path>
                <path d="M103.0449,26.5781 L115.4309,26.5781 C115.1819,24.4611 113.6269,21.4121 109.2069,21.4121 C105.0369,21.4121 103.4189,24.3991 103.0449,26.5781 M109.2069,14.0051 C118.1079,14.0051 124.5809,20.5401 124.5809,30.7481 L124.5809,32.8021 L103.8799,32.8021 L103.0529,31.7021 C103.0579,32.0681 103.1069,32.5891 103.2219,33.0381 C103.9119,35.7361 106.4699,38.1551 110.8249,38.1551 C113.5019,38.1551 116.4889,37.0971 118.1699,35.6031 L122.2159,41.5781 C119.2279,44.2541 114.2489,45.5611 109.6429,45.5611 C100.3689,45.5611 93.2109,39.5241 93.2109,29.7521 C93.2109,21.0381 99.8089,14.0051 109.2069,14.0051" id="Fill-101" fill="#081F2C"></path>
                <polygon id="Fill-102" fill="#081F2C" points="126.5221 44.8148 136.1071 44.8148 136.1071 14.7518 126.5221 14.7518"></polygon>
                <polygon id="Fill-103" fill="#081F2C" points="85.52 14.752 79.045 32.655 79.282 35.446 71.889 14.752 63.718 14.752 63.718 19.612 73.632 44.815 83.84 44.815 95.666 14.752"></polygon>
                <path d="M125.8374,5.478 C125.8374,2.428 128.2644,0 131.3144,0 C134.3644,0 136.7924,2.428 136.7924,5.478 C136.7924,8.528 134.3644,10.955 131.3144,10.955 C128.2644,10.955 125.8374,8.528 125.8374,5.478" id="Fill-104" fill="#40C1AC"></path>
                <path d="M4.3452,56.6284 C4.3452,55.8094 3.7552,55.2414 2.8912,55.2414 L0.9792,55.2414 L0.9792,58.0154 L2.8912,58.0154 C3.7552,58.0154 4.3452,57.4464 4.3452,56.6284 L4.3452,56.6284 Z M0.0722,61.7174 L0.0722,54.4324 L3.0012,54.4324 C4.4652,54.4324 5.2852,55.4374 5.2852,56.6284 C5.2852,57.8184 4.4542,58.8234 3.0012,58.8234 L0.9792,58.8234 L0.9792,61.7174 L0.0722,61.7174 Z" id="Fill-105" fill="#081F2C"></path>
                <path d="M9.5371,60.6035 L9.5371,59.5985 C9.2201,59.1725 8.6621,58.9545 8.0941,58.9545 C7.3181,58.9545 6.7821,59.4355 6.7821,60.1015 C6.7821,60.7785 7.3181,61.2585 8.0941,61.2585 C8.6621,61.2585 9.2201,61.0405 9.5371,60.6035 L9.5371,60.6035 Z M9.5371,61.7175 L9.5371,61.1175 C9.1101,61.5975 8.4981,61.8495 7.7881,61.8495 C6.9021,61.8495 5.9521,61.2475 5.9521,60.1015 C5.9521,58.9105 6.8911,58.3645 7.7881,58.3645 C8.5091,58.3645 9.1101,58.5935 9.5371,59.0745 L9.5371,58.1245 C9.5371,57.4245 8.9681,57.0205 8.2031,57.0205 C7.5691,57.0205 7.0551,57.2395 6.5861,57.7525 L6.2031,57.1855 C6.7711,56.5955 7.4491,56.3115 8.3131,56.3115 C9.4381,56.3115 10.3561,56.8135 10.3561,58.0915 L10.3561,61.7175 L9.5371,61.7175 Z" id="Fill-106" fill="#081F2C"></path>
                <path d="M11.8423,63.0391 C11.9623,63.0941 12.1593,63.1261 12.2893,63.1261 C12.6503,63.1261 12.8913,63.0061 13.0773,62.5701 L13.4263,61.7721 L11.2183,56.4421 L12.1143,56.4421 L13.8633,60.7681 L15.6233,56.4421 L16.5083,56.4421 L13.8633,62.7881 C13.5473,63.5531 13.0113,63.8471 12.3113,63.8581 C12.1363,63.8581 11.8633,63.8261 11.7213,63.7821 L11.8423,63.0391 Z" id="Fill-107" fill="#081F2C"></path>
                <path d="M23.7329,61.7173 L23.7329,58.1343 C23.7329,57.4683 23.4489,57.0423 22.7599,57.0423 C22.2129,57.0423 21.6339,57.4253 21.3609,57.8513 L21.3609,61.7173 L20.5419,61.7173 L20.5419,58.1343 C20.5419,57.4683 20.2679,57.0423 19.5679,57.0423 C19.0329,57.0423 18.4649,57.4363 18.1799,57.8623 L18.1799,61.7173 L17.3609,61.7173 L17.3609,56.4423 L18.1799,56.4423 L18.1799,57.2073 C18.4099,56.8683 19.1099,56.3113 19.8969,56.3113 C20.6949,56.3113 21.1529,56.7483 21.3059,57.2943 C21.6019,56.8133 22.3119,56.3113 23.0769,56.3113 C24.0389,56.3113 24.5529,56.8463 24.5529,57.9053 L24.5529,61.7173 L23.7329,61.7173 Z" id="Fill-108" fill="#081F2C"></path>
                <path d="M28.476,56.9888 C27.35,56.9888 26.792,57.9388 26.749,58.7368 L30.214,58.7368 C30.203,57.9608 29.679,56.9888 28.476,56.9888 M25.886,59.0748 C25.886,57.5458 26.978,56.3108 28.487,56.3108 C30.082,56.3108 31.022,57.5558 31.022,59.1398 L31.022,59.3478 L26.76,59.3478 C26.825,60.3418 27.514,61.1718 28.651,61.1718 C29.263,61.1718 29.864,60.9308 30.29,60.4948 L30.684,61.0298 C30.148,61.5528 29.437,61.8488 28.585,61.8488 C27.011,61.8488 25.886,60.7238 25.886,59.0748" id="Fill-109" fill="#081F2C"></path>
                <path d="M35.9179,61.7173 L35.9179,58.2663 C35.9179,57.3273 35.4369,57.0423 34.7269,57.0423 C34.0819,57.0423 33.4799,57.4363 33.1639,57.8623 L33.1639,61.7173 L32.3439,61.7173 L32.3439,56.4423 L33.1639,56.4423 L33.1639,57.2073 C33.5359,56.7593 34.2569,56.3113 35.0549,56.3113 C36.1469,56.3113 36.7269,56.8683 36.7269,58.0153 L36.7269,61.7173 L35.9179,61.7173 Z" id="Fill-110" fill="#081F2C"></path>
                <path d="M38.541,60.6143 L38.541,57.1633 L37.666,57.1633 L37.666,56.4423 L38.541,56.4423 L38.541,55.0003 L39.371,55.0003 L39.371,56.4423 L40.442,56.4423 L40.442,57.1633 L39.371,57.1633 L39.371,60.4403 C39.371,60.8333 39.546,61.1173 39.896,61.1173 C40.137,61.1173 40.344,61.0073 40.454,60.8873 L40.694,61.5103 C40.486,61.7063 40.191,61.8483 39.721,61.8483 C38.935,61.8483 38.541,61.4013 38.541,60.6143" id="Fill-111" fill="#081F2C"></path>
                <polygon id="Fill-112" fill="#081F2C" points="46.2563 61.7173 46.2563 55.2413 43.9503 55.2413 43.9503 54.4323 49.4813 54.4323 49.4813 55.2413 47.1633 55.2413 47.1633 61.7173"></polygon>
                <path d="M51.6777,56.9888 C50.5517,56.9888 49.9937,57.9388 49.9507,58.7368 L53.4157,58.7368 C53.4047,57.9608 52.8797,56.9888 51.6777,56.9888 M49.0877,59.0748 C49.0877,57.5458 50.1797,56.3108 51.6887,56.3108 C53.2837,56.3108 54.2237,57.5558 54.2237,59.1398 L54.2237,59.3478 L49.9617,59.3478 C50.0267,60.3418 50.7157,61.1718 51.8527,61.1718 C52.4647,61.1718 53.0657,60.9308 53.4917,60.4948 L53.8847,61.0298 C53.3497,61.5528 52.6387,61.8488 51.7867,61.8488 C50.2127,61.8488 49.0877,60.7238 49.0877,59.0748" id="Fill-113" fill="#081F2C"></path>
                <path d="M55.2397,59.0747 C55.2397,57.5127 56.2997,56.3107 57.8737,56.3107 C58.8357,56.3107 59.4037,56.7037 59.8077,57.2287 L59.2617,57.7197 C58.9117,57.2397 58.4637,57.0427 57.9167,57.0427 C56.8027,57.0427 56.0927,57.9057 56.0927,59.0747 C56.0927,60.2427 56.8027,61.1167 57.9167,61.1167 C58.4637,61.1167 58.9117,60.8977 59.2617,60.4287 L59.8077,60.9307 C59.4037,61.4557 58.8357,61.8487 57.8737,61.8487 C56.2997,61.8487 55.2397,60.6367 55.2397,59.0747" id="Fill-114" fill="#081F2C"></path>
                <path d="M64.54,61.7173 L64.54,58.2443 C64.54,57.3053 64.07,57.0423 63.348,57.0423 C62.715,57.0423 62.102,57.4363 61.796,57.8623 L61.796,61.7173 L60.977,61.7173 L60.977,54.4323 L61.796,54.4323 L61.796,57.2073 C62.158,56.7593 62.879,56.3113 63.676,56.3113 C64.78,56.3113 65.36,56.8463 65.36,57.9933 L65.36,61.7173 L64.54,61.7173 Z" id="Fill-115" fill="#081F2C"></path>
                <path d="M70.5727,61.7173 L70.5727,58.2663 C70.5727,57.3273 70.0917,57.0423 69.3817,57.0423 C68.7367,57.0423 68.1347,57.4363 67.8187,57.8623 L67.8187,61.7173 L66.9987,61.7173 L66.9987,56.4423 L67.8187,56.4423 L67.8187,57.2073 C68.1907,56.7593 68.9117,56.3113 69.7087,56.3113 C70.8017,56.3113 71.3817,56.8683 71.3817,58.0153 L71.3817,61.7173 L70.5727,61.7173 Z" id="Fill-116" fill="#081F2C"></path>
                <path d="M77.0864,59.0747 C77.0864,58.0047 76.4634,57.0427 75.3374,57.0427 C74.2114,57.0427 73.5884,58.0047 73.5884,59.0747 C73.5884,60.1557 74.2114,61.1167 75.3374,61.1167 C76.4634,61.1167 77.0864,60.1557 77.0864,59.0747 M72.7254,59.0747 C72.7254,57.5457 73.7314,56.3107 75.3374,56.3107 C76.9444,56.3107 77.9504,57.5457 77.9504,59.0747 C77.9504,60.6037 76.9444,61.8487 75.3374,61.8487 C73.7314,61.8487 72.7254,60.6037 72.7254,59.0747" id="Fill-117" fill="#081F2C"></path>
                <polygon id="Fill-118" fill="#081F2C" points="79.2831 61.7178 80.1021 61.7178 80.1021 54.4328 79.2831 54.4328"></polygon>
                <path d="M85.7968,59.0747 C85.7968,58.0047 85.1728,57.0427 84.0478,57.0427 C82.9218,57.0427 82.2988,58.0047 82.2988,59.0747 C82.2988,60.1557 82.9218,61.1167 84.0478,61.1167 C85.1728,61.1167 85.7968,60.1557 85.7968,59.0747 M81.4358,59.0747 C81.4358,57.5457 82.4418,56.3107 84.0478,56.3107 C85.6538,56.3107 86.6598,57.5457 86.6598,59.0747 C86.6598,60.6037 85.6538,61.8487 84.0478,61.8487 C82.4418,61.8487 81.4358,60.6037 81.4358,59.0747" id="Fill-119" fill="#081F2C"></path>
                <path d="M91.8188,60.1992 L91.8188,57.8842 C91.5238,57.4362 90.8888,57.0422 90.2448,57.0422 C89.1728,57.0422 88.5398,57.8842 88.5398,59.0532 C88.5398,60.2102 89.1728,61.0512 90.2448,61.0512 C90.8888,61.0512 91.5238,60.6582 91.8188,60.1992 M87.9828,63.0602 L88.3978,62.4712 C88.8348,62.9842 89.3588,63.1812 90.1128,63.1812 C90.9878,63.1812 91.8188,62.7552 91.8188,61.6412 L91.8188,60.8432 C91.4248,61.3792 90.7798,61.7832 90.0368,61.7832 C88.6588,61.7832 87.6868,60.7562 87.6868,59.0532 C87.6868,57.3592 88.6488,56.3112 90.0368,56.3112 C90.7468,56.3112 91.3918,56.6602 91.8188,57.2402 L91.8188,56.4422 L92.6378,56.4422 L92.6378,61.6412 C92.6378,63.3112 91.4028,63.8582 90.1128,63.8582 C89.2278,63.8582 88.6158,63.6832 87.9828,63.0602" id="Fill-120" fill="#081F2C"></path>
                <path d="M94.1128,63.0391 C94.2328,63.0941 94.4298,63.1261 94.5608,63.1261 C94.9218,63.1261 95.1618,63.0061 95.3478,62.5701 L95.6978,61.7721 L93.4898,56.4421 L94.3858,56.4421 L96.1348,60.7681 L97.8938,56.4421 L98.7798,56.4421 L96.1348,62.7881 C95.8178,63.5531 95.2818,63.8471 94.5828,63.8581 C94.4078,63.8581 94.1348,63.8261 93.9928,63.7821 L94.1128,63.0391 Z" id="Fill-121" fill="#081F2C"></path>
                <path d="M106.7685,56.6284 C106.7685,55.8084 106.1785,55.2414 105.3145,55.2414 L103.4025,55.2414 L103.4025,58.0154 L105.3145,58.0154 C106.1785,58.0154 106.7685,57.4464 106.7685,56.6284 L106.7685,56.6284 Z M102.4955,61.7174 L102.4955,54.4324 L105.4245,54.4324 C106.8885,54.4324 107.7085,55.4374 107.7085,56.6284 C107.7085,57.8184 106.8775,58.8224 105.4245,58.8224 L103.4025,58.8224 L103.4025,61.7174 L102.4955,61.7174 Z" id="Fill-122" fill="#081F2C"></path>
                <path d="M111.9594,60.6035 L111.9594,59.5985 C111.6424,59.1725 111.0844,58.9545 110.5164,58.9545 C109.7404,58.9545 109.2054,59.4355 109.2054,60.1015 C109.2054,60.7785 109.7404,61.2585 110.5164,61.2585 C111.0844,61.2585 111.6424,61.0405 111.9594,60.6035 L111.9594,60.6035 Z M111.9594,61.7175 L111.9594,61.1175 C111.5324,61.5975 110.9204,61.8485 110.2104,61.8485 C109.3254,61.8485 108.3744,61.2475 108.3744,60.1015 C108.3744,58.9105 109.3134,58.3645 110.2104,58.3645 C110.9324,58.3645 111.5324,58.5935 111.9594,59.0745 L111.9594,58.1245 C111.9594,57.4245 111.3904,57.0205 110.6264,57.0205 C109.9914,57.0205 109.4784,57.2395 109.0084,57.7525 L108.6264,57.1855 C109.1944,56.5955 109.8724,56.3105 110.7354,56.3105 C111.8604,56.3105 112.7784,56.8135 112.7784,58.0915 L112.7784,61.7175 L111.9594,61.7175 Z" id="Fill-123" fill="#081F2C"></path>
                <path d="M114.4297,61.7173 L114.4297,56.4423 L115.2487,56.4423 L115.2487,57.2833 C115.6757,56.7373 116.2867,56.3213 117.0087,56.3213 L117.0087,57.1633 C116.9097,57.1523 116.8117,57.1413 116.6917,57.1413 C116.1787,57.1413 115.4897,57.5563 115.2487,57.9823 L115.2487,61.7173 L114.4297,61.7173 Z" id="Fill-124" fill="#081F2C"></path>
                <path d="M118.1997,60.6143 L118.1997,57.1633 L117.3247,57.1633 L117.3247,56.4423 L118.1997,56.4423 L118.1997,55.0003 L119.0297,55.0003 L119.0297,56.4423 L120.1007,56.4423 L120.1007,57.1633 L119.0297,57.1633 L119.0297,60.4403 C119.0297,60.8333 119.2047,61.1173 119.5547,61.1173 C119.7957,61.1173 120.0027,61.0073 120.1127,60.8873 L120.3527,61.5103 C120.1447,61.7063 119.8497,61.8483 119.3797,61.8483 C118.5937,61.8483 118.1997,61.4013 118.1997,60.6143" id="Fill-125" fill="#081F2C"></path>
                <path d="M124.8222,61.7173 L124.8222,58.2663 C124.8222,57.3273 124.3412,57.0423 123.6312,57.0423 C122.9872,57.0423 122.3852,57.4363 122.0682,57.8623 L122.0682,61.7173 L121.2492,61.7173 L121.2492,56.4423 L122.0682,56.4423 L122.0682,57.2073 C122.4402,56.7593 123.1612,56.3103 123.9592,56.3103 C125.0512,56.3103 125.6312,56.8683 125.6312,58.0153 L125.6312,61.7173 L124.8222,61.7173 Z" id="Fill-126" fill="#081F2C"></path>
                <path d="M129.5659,56.9888 C128.4399,56.9888 127.8819,57.9388 127.8389,58.7368 L131.3039,58.7368 C131.2929,57.9608 130.7679,56.9888 129.5659,56.9888 M126.9749,59.0748 C126.9749,57.5458 128.0679,56.3108 129.5769,56.3108 C131.1719,56.3108 132.1119,57.5558 132.1119,59.1398 L132.1119,59.3478 L127.8499,59.3478 C127.9149,60.3418 128.6039,61.1718 129.7409,61.1718 C130.3529,61.1718 130.9539,60.9308 131.3799,60.4948 L131.7729,61.0298 C131.2379,61.5528 130.5269,61.8488 129.6749,61.8488 C128.1009,61.8488 126.9759,60.7238 126.9749,59.0748" id="Fill-127" fill="#081F2C"></path>
                <path d="M133.434,61.7173 L133.434,56.4423 L134.253,56.4423 L134.253,57.2833 C134.68,56.7373 135.291,56.3213 136.013,56.3213 L136.013,57.1633 C135.915,57.1523 135.816,57.1413 135.696,57.1413 C135.183,57.1413 134.494,57.5563 134.253,57.9823 L134.253,61.7173 L133.434,61.7173 Z" id="Fill-128" fill="#081F2C"></path>
            </g>
        </g>
    </g>
</svg>